<?xml version="1.0" encoding="UTF-8"?>
<svg id="svg2" xmlns="http://www.w3.org/2000/svg" xmlns:svg="http://www.w3.org/2000/svg" xmlns:sodipodi="http://sodipodi.sourceforge.net/DTD/sodipodi-0.dtd" xmlns:rdf="http://www.w3.org/1999/02/22-rdf-syntax-ns#" xmlns:inkscape="http://www.inkscape.org/namespaces/inkscape" xmlns:dc="http://purl.org/dc/elements/1.1/" xmlns:cc="http://creativecommons.org/ns#" version="1.1" viewBox="0 0 400 100">
  <!-- Generator: Adobe Illustrator 30.1.0, SVG Export Plug-In . SVG Version: 2.1.1 Build 136)  -->
  <path d="M76.502,49.85c-.017-2.961.294-13.845-1.199-16.401-1.493-2.555-11.127-7.631-13.697-9.098-2.569-1.467-11.841-7.177-14.802-7.161-2.96.015-12.171,5.819-14.728,7.311-2.556,1.493-12.138,6.667-13.603,9.239-1.467,2.57-1.047,13.45-1.031,16.411.017,2.96-.294,13.844,1.199,16.4,1.493,2.555,11.127,7.631,13.697,9.098,2.57,1.467,11.842,7.177,14.801,7.162,2.961-.015,12.173-5.82,14.729-7.313,2.556-1.493,12.136-6.668,13.602-9.238,1.469-2.572,1.047-13.452,1.032-16.411ZM62.037,65.305c0,1.491-.477,2.269-1.789,2.805-3.345,1.373-8.478,2.21-12.118,2.21h-.776c-6.388,0-10.446-1.075-12.953-3.583-2.686-2.626-3.522-6.626-3.522-12.834v-6.864c0-5.85,1.254-9.849,3.82-12.476,2.627-2.687,6.566-3.939,12.714-3.939h.538c4.537,0,9.729,1.313,12.596,2.865.776.418,1.015.776,1.015,1.253,0,.418-.119.836-.477,1.791l-1.553,4.059c-.416,1.075-1.015,1.253-1.909.776-3.045-1.551-5.852-2.388-9.253-2.388h-.3c-2.683,0-4.595.776-5.609,2.209-1.016,1.492-1.374,3.581-1.374,7.162v4.538c0,3.999.418,6.267,1.612,7.58.955,1.075,2.447,1.493,4.896,1.493h.357c1.074,0,2.268-.119,2.925-.239.894-.18,1.135-.537,1.135-1.493v-5.491h-3.105c-1.432,0-1.791-.239-1.791-1.612v-4c0-1.491.359-1.85,1.731-1.85h11.341c1.433,0,1.851.598,1.851,1.971v16.058Z" isolation="isolate"/>
  <g>
    <path d="M119.125,36.389l-1.045,3.134c-.22.77-.935.935-1.649.605-2.035-.99-5.279-1.87-7.919-1.87-2.75,0-4.895.495-6.27,2.035-1.595,1.76-2.255,4.895-2.255,9.899v1.209c0,5.39.386,7.919,1.76,9.734,1.21,1.65,3.245,2.255,6.324,2.255,1.87,0,3.465-.11,4.234-.22.66-.11.88-.33.88-1.045v-7.974h-4.069c-1.154,0-1.484-.275-1.484-1.265v-3.08c0-1.045.33-1.375,1.484-1.375h9.679c.99,0,1.32.44,1.32,1.375v15.948c0,1.319-.221,1.76-1.43,2.089-3.08.825-6.984,1.265-10.284,1.265-5.994,0-9.349-.99-11.769-3.41-2.749-2.695-3.739-7.204-3.739-13.858v-2.145c0-6.599,1.375-11.108,4.289-13.803,2.64-2.419,6.545-3.354,11.714-3.354,3.52,0,7.589,1.045,9.679,2.145.66.33.825.825.55,1.705Z" isolation="isolate"/>
    <path d="M146.13,56.681c0,1.155-.33,1.595-1.484,1.595h-13.748c.055,2.2.439,3.575,1.374,4.399.716.66,2.2,1.1,4.84,1.1,1.814,0,4.399-.495,5.939-1.155.66-.275,1.21-.275,1.539.88l.716,2.64c.22.825.055,1.155-.99,1.54-2.31.88-5.169,1.43-7.974,1.43-4.455,0-7.369-.88-9.239-2.805-2.145-2.2-2.859-5.39-2.859-10.449v-1.485c0-8.634,2.859-13.198,11.328-13.198,3.739,0,5.994.88,7.754,2.475,1.815,1.65,2.805,4.015,2.805,9.294v3.739ZM132.217,47.498c-.989,1.045-1.43,2.97-1.43,5.609h8.084c.55,0,.715-.22.715-.77,0-2.419-.275-4.015-1.045-4.895-.66-.715-1.54-1.044-3.189-1.044-1.43,0-2.42.33-3.135,1.1Z" isolation="isolate"/>
    <path d="M173.41,67.24c0,1.1-.33,1.375-1.54,1.375h-3.465c-1.209,0-1.539-.275-1.539-1.375v-15.343c0-2.2-.275-3.41-1.155-4.29-.825-.825-1.87-1.155-3.63-1.155-1.595,0-2.804.33-3.52.99-.715.66-1.154,1.54-1.154,3.794v16.003c0,1.1-.33,1.375-1.54,1.375h-3.464c-1.21,0-1.54-.275-1.54-1.375v-24.307c0-.935.385-1.265,1.319-1.265h2.035c.935,0,1.265.165,1.43.99l.275,1.32h.164c1.54-1.595,3.685-2.805,7.479-2.805,3.904,0,6.599,1.045,8.358,3.685,1.21,1.87,1.485,4.564,1.485,7.369v15.013Z" isolation="isolate"/>
    <path d="M186.447,35.014c0,2.475-1.595,3.85-3.85,3.85h-.274c-2.805,0-3.85-1.375-3.85-3.85v-.33c0-2.64,1.704-3.794,3.85-3.794h.274c2.255,0,3.85,1.155,3.85,3.794v.33ZM185.732,67.24c0,1.1-.33,1.375-1.54,1.375h-3.465c-1.209,0-1.539-.275-1.539-1.375v-24.197c0-1.1.33-1.375,1.539-1.375h3.465c1.21,0,1.54.275,1.54,1.375v24.197Z" isolation="isolate"/>
    <path d="M206.959,66.305c-1.045,1.814-2.75,2.805-6.049,2.805h-2.035c-2.859,0-4.564-.495-6.049-1.76-1.595-1.375-2.365-3.52-2.365-6.159v-1.265c0-2.969.715-5.059,2.31-6.379,1.705-1.43,4.29-2.035,8.029-2.035h1.979c.99,0,2.145.055,3.08.11v-1.485c0-1.43-.275-2.255-.936-2.805-.77-.605-1.814-.77-3.794-.77s-4.564.385-6.765,1.045c-.88.275-1.209-.11-1.374-.88l-.495-2.584c-.22-.935-.11-1.375.824-1.65,2.035-.66,5.39-1.32,8.305-1.32,3.904,0,6.049.495,7.919,1.76,1.979,1.375,2.859,3.354,2.859,7.259v17.377c0,.715-.385,1.045-1.155,1.045h-2.529c-.825,0-1.155-.275-1.32-.99l-.329-1.32h-.11ZM205.86,56.846c-.936-.055-2.09-.11-3.189-.11h-1.925c-1.265,0-2.31.165-2.86.66-.604.495-.824,1.43-.824,2.695v.66c0,1.209.274,1.979.824,2.475.44.385,1.21.66,2.42.66h1.979c2.53,0,3.575-1.155,3.575-3.685v-3.354Z" isolation="isolate"/>
    <path d="M224.505,61.301c0,1.32.439,1.815,1.595,1.815h1.649c.99,0,1.265.33,1.265,1.319v2.86c0,1.045-.33,1.32-1.265,1.32h-3.685c-2.31,0-3.52-.385-4.51-1.32-1.1-1.1-1.595-2.64-1.595-5.389v-29.146c0-1.1.33-1.375,1.54-1.375h3.465c1.21,0,1.54.275,1.54,1.375v28.542Z" isolation="isolate"/>
    <path d="M240.4,35.014c0,2.475-1.595,3.85-3.85,3.85h-.274c-2.805,0-3.85-1.375-3.85-3.85v-.33c0-2.64,1.704-3.794,3.85-3.794h.274c2.255,0,3.85,1.155,3.85,3.794v.33ZM239.685,67.24c0,1.1-.33,1.375-1.54,1.375h-3.465c-1.209,0-1.539-.275-1.539-1.375v-24.197c0-1.1.33-1.375,1.539-1.375h3.465c1.21,0,1.54.275,1.54,1.375v24.197Z" isolation="isolate"/>
    <path d="M245.351,67.515c-.99-.385-1.101-.715-.88-1.65l.604-2.695c.22-.88.715-1.155,1.54-.825,1.979.77,4.674,1.43,6.599,1.43,1.815,0,2.86-.165,3.575-.66.659-.44.935-1.1.935-2.145v-.385c0-1.76-.935-2.31-3.189-2.86l-3.3-.77c-2.64-.605-3.795-1.32-4.84-2.475-1.1-1.209-1.649-2.915-1.649-5.059v-.495c0-2.97.88-4.729,2.42-5.939,1.54-1.21,3.794-1.815,7.424-1.815,2.805,0,5.829.55,7.369,1.1.77.275.88.495.715,1.32l-.66,3.08c-.165.825-.659.935-1.375.715-1.265-.44-3.574-.88-5.334-.88-1.814,0-2.805.165-3.409.605-.55.385-.771.935-.771,1.76v.385c0,1.65,1.101,2.09,2.805,2.475l3.41.77c2.64.605,4.454,1.54,5.554,2.97.88,1.209,1.21,2.64,1.21,4.564v.66c0,2.53-.715,4.509-2.199,5.939-1.76,1.649-4.455,2.475-8.14,2.475-2.859,0-6.049-.605-8.413-1.595Z" isolation="isolate"/>
    <path d="M282.859,68.56c-1.484-.11-1.925-.605-1.925-2.254v-30.906c0-1.649.44-2.145,1.925-2.31,2.2-.22,4.729-.33,7.699-.33,6.489,0,10.504,1.155,13.418,3.685,3.135,2.75,4.51,6.764,4.51,12.813v3.135c0,5.829-1.54,10.063-4.84,12.648-3.354,2.64-7.204,3.575-14.518,3.575-2.145,0-4.675.055-6.27-.055ZM288.798,38.424c-.66.055-.935.33-.935.99v22.382c0,.935.385,1.265,1.319,1.265h1.705c7.754,0,10.503-3.025,10.503-11.164v-2.42c0-8.304-2.254-11.108-10.668-11.108-.825,0-1.375,0-1.925.055Z" isolation="isolate"/>
    <path d="M332.906,44.418c2.034,2.31,2.805,5.774,2.805,9.899v1.649c0,4.234-.771,7.589-2.805,9.899-1.815,2.035-4.675,3.245-8.744,3.245s-6.929-1.21-8.744-3.245c-2.034-2.31-2.804-5.665-2.804-9.899v-1.649c0-4.125.77-7.589,2.804-9.899,1.815-2.09,4.62-3.245,8.744-3.245s6.929,1.155,8.744,3.245ZM327.846,62.401c.935-1.209,1.21-3.354,1.21-6.709v-1.155c0-3.354-.275-5.444-1.21-6.654-.77-.99-1.705-1.484-3.685-1.484s-2.914.495-3.685,1.484c-.935,1.21-1.21,3.3-1.21,6.654v1.155c0,3.354.275,5.5,1.21,6.709.771.935,1.705,1.485,3.685,1.485s2.915-.55,3.685-1.485Z" isolation="isolate"/>
    <path d="M359.526,65.756c.274.99.055,1.319-1.155,1.924-1.869.935-5.004,1.43-7.974,1.43-3.189,0-6.214-.935-7.919-2.475-2.64-2.365-3.079-6.159-3.079-10.834v-1.649c0-4.895.879-8.359,3.299-10.449,1.925-1.65,4.675-2.53,8.249-2.53,3.135,0,6.379.99,8.469,2.255.88.55.936,1.155.55,1.925l-1.374,2.75c-.275.55-.88.825-1.595.385-1.98-1.265-3.74-1.814-5.774-1.814-1.54,0-2.805.385-3.685,1.155-1.54,1.375-1.485,3.464-1.485,6.764v.88c0,3.739.221,5.499,1.265,6.764.825.935,1.98,1.54,4.235,1.54,1.814,0,4.069-.495,5.554-1.155.825-.385,1.485-.22,1.705.605l.715,2.53Z" isolation="isolate"/>
    <path d="M363.874,67.515c-.99-.385-1.101-.715-.88-1.65l.604-2.695c.22-.88.715-1.155,1.54-.825,1.979.77,4.674,1.43,6.599,1.43,1.815,0,2.859-.165,3.575-.66.659-.44.935-1.1.935-2.145v-.385c0-1.76-.935-2.31-3.189-2.86l-3.3-.77c-2.64-.605-3.795-1.32-4.839-2.475-1.101-1.209-1.65-2.915-1.65-5.059v-.495c0-2.97.88-4.729,2.42-5.939,1.54-1.21,3.794-1.815,7.424-1.815,2.805,0,5.829.55,7.369,1.1.77.275.88.495.715,1.32l-.66,3.08c-.165.825-.66.935-1.375.715-1.265-.44-3.574-.88-5.334-.88-1.814,0-2.805.165-3.409.605-.55.385-.771.935-.771,1.76v.385c0,1.65,1.101,2.09,2.805,2.475l3.41.77c2.64.605,4.454,1.54,5.554,2.97.88,1.209,1.21,2.64,1.21,4.564v.66c0,2.53-.715,4.509-2.199,5.939-1.76,1.649-4.455,2.475-8.14,2.475-2.859,0-6.049-.605-8.413-1.595Z" isolation="isolate"/>
  </g>
</svg>